<?xml version="1.0" encoding="utf-8"?>
<!-- Generator: Adobe Illustrator 19.1.0, SVG Export Plug-In . SVG Version: 6.00 Build 0)  -->
<svg version="1.1" id="Layer_1" xmlns="http://www.w3.org/2000/svg" xmlns:xlink="http://www.w3.org/1999/xlink" x="0px" y="0px"
	 viewBox="0 0 234.8 204" style="enable-background:new 0 0 234.8 204;" xml:space="preserve">
<style type="text/css">
	.st0{fill:none;}
</style>
<path class="st0" d="M167.8,33.3c-15.3,1.3-26.4,8.7-29.1,19.9c-1,4.1,0.2,10.3,1,14c2.5,11.3,8.6,24.6,16.6,31.2
	c11.6,9.5,34.4,13.3,48.9,4.2c8.6-5.4,11.6-15.7,13.5-28.6c1.1-7.4,2.4-20.6-1-27C211.8,35.9,188.2,31.6,167.8,33.3z"/>
<path class="st0" d="M43.6,33.3C31.2,34.4,20.9,39.8,17.1,47c-3.5,6.6-2.3,18.7-1,27c1.4,9.3,3.3,17.6,7.3,22.9
	c10.9,14.8,42.2,12.8,55.9,1.6c6.3-5.2,9.3-12,12.5-19.8c2.6-6.5,7.6-17.4,5.2-26C92.8,37.8,65,31.5,43.6,33.3z"/>
<path class="st0" d="M167.8,33.3c-15.3,1.3-26.4,8.7-29.1,19.9c-1,4.1,0.2,10.3,1,14c2.5,11.3,8.6,24.6,16.6,31.2
	c11.6,9.5,34.4,13.3,48.9,4.2c8.6-5.4,11.6-15.7,13.5-28.6c1.1-7.4,2.4-20.6-1-27C211.8,35.9,188.2,31.6,167.8,33.3z"/>
<path class="st0" d="M43.6,33.3C31.2,34.4,20.9,39.8,17.1,47c-3.5,6.6-2.3,18.7-1,27c1.4,9.3,3.3,17.6,7.3,22.9
	c10.9,14.8,42.2,12.8,55.9,1.6c6.3-5.2,9.3-12,12.5-19.8c2.6-6.5,7.6-17.4,5.2-26C92.8,37.8,65,31.5,43.6,33.3z"/>
<path d="M233.8,38.1c-4.8-1.6-9.7-3-14.7-4.1c2.1-1.2,3.7-3.2,4.2-5.7l1.9-8.9c1-4.7-2-9.3-6.6-10.3l-41.3-8.8
	c-4.7-1-9.3,2-10.3,6.7l-1.9,8.9c-1,4.7,2,9.3,6.6,10.3l18.5,4c-17.9-0.9-35.6,0.9-51.1,5.5c-4,1.2-7.8,3.4-12,4.2
	c-13.7,2.6-24.8-2.1-33.8-4.7c-12.7-3.7-28-5.3-43.3-5.1l19.5-2.9c4.9-0.7,8.3-5.3,7.5-10.1l-1.4-9.3c-0.7-4.9-5.2-8.2-10.1-7.5
	L22.5,6.4c-4.9,0.7-8.2,5.2-7.5,10.1l1.4,9.3c0.4,3.1,2.4,5.5,5,6.8C13.9,34,7,35.8,1,38.1c0.1,4.1-1.8,8.3-0.5,12
	c0.9,2.6,2.1,1.3,3.6,2.6c3.9,3.2,4,11.2,4.7,16.6c3,23.9,10.6,41.3,34.8,43.2c16.2,1.2,31.9-1.2,43.6-9.6c-1.3,7.4-2,14.9-2.4,21.8
	c-5.7,10.4-13.9,28.6-8.6,37.8l-22.8,25c0,9.1,7.4,16.4,16.4,16.4l13.7-1.4L90,194l5.9,9.9l21.1-10l11.5,10.1h16.3l6.4-6.1l8,6.1
	h7.4c9.1,0,16.4-7.4,16.4-16.5l-24.1-24.6c0.5-0.6,0.9-1.3,1.4-2c5.5-9.4-4.1-29.5-8.9-38.4c-0.4-5.8-1.1-11.9-2.2-18.2
	c11,7.1,26.7,9.7,43,8.1c21.4-2.1,29.2-16.9,32.7-36.4c1.1-5.8,0.8-14.7,3.1-19.7c1.4-3.1,5-2.7,6.2-6.2
	C235.7,46.4,233.7,41.4,233.8,38.1z M79.2,98.4c-13.8,11.3-45,13.2-55.9-1.6c-3.9-5.3-5.9-13.6-7.3-22.9c-1.2-8.3-2.5-20.5,1-27
	c3.9-7.1,14.1-12.6,26.5-13.6c21.4-1.8,49.2,4.5,53.3,19.4c2.4,8.5-2.6,19.5-5.2,26C88.6,86.5,85.6,93.3,79.2,98.4z M155.2,158
	c-3.8,6.5-11.9,7.2-15.2,7.2c-0.3,0-0.6,0-0.8,0l-1,0l-0.8,0.5c-4.3,2.8-11.1,3-17.8,3.2l-1.3,0c-1.3,0-2.7,0-4,0
	c-4.1,0-9.4-0.2-13.4-1.9l-0.7-0.3l-0.7,0.1c-0.1,0-0.5,0-1.4,0c-3.7,0-12.7-0.7-17-7.3c-3.4-5.2,2-20.1,8.9-32.5l0.3-0.6l0-0.7
	c1.4-36,14.8-71.3,26.9-71.3c12,0,25.9,34.3,28,69.3l0,0.7l0.3,0.6C152.9,137.4,158.4,152.6,155.2,158z M218.8,74
	c-1.9,12.9-5,23.2-13.5,28.6c-14.5,9.2-37.3,5.3-48.9-4.2c-8-6.6-14.2-19.9-16.6-31.2c-0.8-3.8-2-9.9-1-14
	c2.7-11.2,13.8-18.6,29.1-19.9c20.3-1.7,43.9,2.6,49.9,13.6C221.2,53.4,219.9,66.6,218.8,74z"/>
</svg>
